HIERARCHY
ROOT Hips
{
	OFFSET -3.958830 18.904000 13.208200
	CHANNELS 6 Xposition Yposition Zposition Zrotation Yrotation Xrotation 
	JOINT LHipJoint
	{
		OFFSET 0.000000 0.000000 0.000000
		CHANNELS 3 Zrotation Yrotation Xrotation
		JOINT LeftUpLeg
		{
			OFFSET 1.800000 -1.400000 0.085000
			CHANNELS 3 Zrotation Yrotation Xrotation
			JOINT LeftLeg
			{
				OFFSET 2.215000 -6.000000 0.000000
				CHANNELS 3 Zrotation Yrotation Xrotation
				JOINT LeftFoot
				{
					OFFSET 2.500000 -6.900000 0.000000
					CHANNELS 3 Zrotation Yrotation Xrotation
					JOINT LeftToeBase
					{
						OFFSET 0.200000 -0.500000 1.950000
						CHANNELS 3 Zrotation Yrotation Xrotation
						End Site
						{
							OFFSET 0.000000 0.000000 0.000000
						}
					}
				}
			}
		}
	}
	JOINT RHipJoint
	{
		OFFSET 0.000000 0.000000 0.000000
		CHANNELS 3 Zrotation Yrotation Xrotation
		JOINT RightUpLeg
		{
			OFFSET -1.800000 -1.400000 0.085000
			CHANNELS 3 Zrotation Yrotation Xrotation
			JOINT RightLeg
			{
				OFFSET -2.215000 -6.000000 0.000000
				CHANNELS 3 Zrotation Yrotation Xrotation
				JOINT RightFoot
				{
					OFFSET -2.500000 -6.900000 0.000000
					CHANNELS 3 Zrotation Yrotation Xrotation
					JOINT RightToeBase
					{
						OFFSET -0.200000 -0.500000 1.950000
						CHANNELS 3 Zrotation Yrotation Xrotation
						End Site
						{
							OFFSET 0.000000 0.000000 0.000000
						}
					}
				}
			}
		}
	}
	JOINT LowerBack
	{
		OFFSET 0.000000 0.000000 0.000000
		CHANNELS 3 Zrotation Yrotation Xrotation
		JOINT Spine
		{
			OFFSET -0.087000 1.940000 -0.288900
			CHANNELS 3 Zrotation Yrotation Xrotation
			JOINT Spine1
			{
				OFFSET 0.000000 1.950000 0.060000
				CHANNELS 3 Zrotation Yrotation Xrotation
				JOINT Neck
				{
					OFFSET 0.000000 0.000000 0.000000
					CHANNELS 3 Zrotation Yrotation Xrotation
					JOINT Neck1
					{
						OFFSET 0.000000 1.600000 0.340000
						CHANNELS 3 Zrotation Yrotation Xrotation
						JOINT Head
						{
							OFFSET 0.000000 1.667000 -0.240000
							CHANNELS 3 Zrotation Yrotation Xrotation
							End Site
							{
								OFFSET 0.000000 0.000000 0.000000
							}
						}
					}
				}
				JOINT LeftShoulder
				{
					OFFSET 0.000000 0.000000 0.000000
					CHANNELS 3 Zrotation Yrotation Xrotation
					JOINT LeftArm
					{
						OFFSET 2.700000 1.550000 -0.730000
						CHANNELS 3 Zrotation Yrotation Xrotation
						JOINT LeftForeArm
						{
							OFFSET 5.450000 0.000000 0.000000
							CHANNELS 3 Zrotation Yrotation Xrotation
							JOINT LeftHand
							{
								OFFSET 3.450000 0.000000 0.000000
								CHANNELS 3 Zrotation Yrotation Xrotation
								JOINT LeftHandIndex1
								{
									OFFSET 0.750000 0.000000 0.000000
									CHANNELS 3 Zrotation Yrotation Xrotation
									End Site
									{
										OFFSET 0.000000 0.000000 0.000000
									}
								}
							}
						}
					}
				}
				JOINT RightShoulder
				{
					OFFSET 0.000000 0.000000 0.000000
					CHANNELS 3 Zrotation Yrotation Xrotation
					JOINT RightArm
					{
						OFFSET -2.700000 1.550000 -0.730000
						CHANNELS 3 Zrotation Yrotation Xrotation
						JOINT RightForeArm
						{
							OFFSET -5.450000 0.000000 0.000000
							CHANNELS 3 Zrotation Yrotation Xrotation
							JOINT RightHand
							{
								OFFSET -3.450000 0.000000 0.000000
								CHANNELS 3 Zrotation Yrotation Xrotation
								JOINT RightHandIndex1
								{
									OFFSET -0.750000 0.000000 0.000000
									CHANNELS 3 Zrotation Yrotation Xrotation
									End Site
									{
										OFFSET 0.000000 0.000000 0.000000
									}
								}
							}
						}
					}
				}
			}
		}
	}
}
MOTION
Frames: 10
Frame Time: 0.016667
0.918880 17.755500 -1.846080 7.100682 -24.528736 -5.803974 -14.817251 10.652535 5.785230 -12.995515 -11.239879 -47.978298 1.184958 4.020447 29.158833 -0.529691 3.812432 3.176542 0.494280 0.213390 0.554120 18.748259 -11.446269 2.407845 -4.104463 1.832996 -5.318825 6.965674 -7.526479 26.052240 -0.582416 -5.241086 2.471122 0.167370 0.112430 0.364740 -4.911755 2.074967 -8.244849 24.115684 7.394640 29.754804 1.915547 11.386162 16.948781 2.474227 -0.374804 -8.018259 -1.659351 -3.776172 45.903335 -12.830200 -1.423780 -8.576870 -7.827963 2.029636 -0.408276 -18.412410 -1.917118 -2.904204 -25.478781 -66.470986 14.802169 -3.463052 3.846890 0.409880 0.131690 0.127980 0.140420 1.812898 4.086345 6.259485 32.471603 19.926390 2.304096 -142.060541 42.259857 -115.498266 2.102746 -1.898862 -0.088110 0.101400 -0.141910 -0.144250 
0.957260 17.709630 -1.852220 7.013359 -23.771012 -5.762155 -14.736634 10.612844 5.665660 -13.622488 -10.775602 -47.052580 0.723527 3.520234 24.608612 -0.620107 3.033478 3.474370 0.514550 0.261520 0.521750 18.818291 -11.543663 2.496948 -3.441140 1.547633 -4.756057 7.282978 -7.498925 25.063987 -0.603585 -5.200894 2.512885 0.184820 0.122580 0.346260 -5.135768 2.346738 -8.200904 25.617780 6.795392 29.789800 0.630473 11.010673 17.277626 2.253429 -1.165638 -8.025309 -3.160320 -3.063011 46.358828 -11.150990 -2.054580 -9.311900 -7.329788 2.204486 -0.397287 -17.814025 -1.608899 -3.115441 -22.837584 -67.818126 13.356268 -3.432708 3.846360 0.406770 0.113870 0.135750 0.173090 1.748458 4.170289 6.285828 32.479834 19.983796 2.473789 -142.491404 42.452226 -116.467709 2.102513 -1.899764 -0.075720 0.125180 -0.158430 -0.113880 
1.014560 17.600480 -1.860510 7.469011 -22.621457 -5.494322 -14.673458 10.611170 5.502170 -14.949649 -10.056431 -45.350721 -0.285189 2.767226 15.726142 -0.724309 1.866994 3.936516 0.540270 0.323430 0.493510 18.867007 -11.661997 2.571653 -2.584475 1.019002 -4.295442 6.692504 -7.053374 23.384126 -0.582702 -5.056515 2.583136 0.211100 0.145550 0.345250 -5.274190 2.591947 -8.157154 25.968337 6.650250 29.754145 -0.054096 10.808229 16.883234 2.043231 -1.694777 -7.456862 -3.719752 -2.848445 45.099311 -10.128630 -2.369410 -8.633650 -7.055812 3.579256 -0.763785 -16.577426 -0.820022 -2.906153 -17.069836 -71.610726 10.403447 -3.422689 3.954193 0.338480 0.127520 0.124220 0.218700 1.856193 3.380072 5.819393 31.339471 21.332047 3.801677 -141.757487 42.508520 -114.227367 2.124438 -1.949632 -0.040790 0.112320 -0.199500 -0.063880 
1.064450 17.452280 -1.851650 8.293312 -21.840838 -4.852068 -14.628028 10.584026 5.368433 -16.099247 -9.444951 -43.541060 -1.662689 2.166701 6.028274 -0.810951 1.227140 4.214535 0.505680 0.280910 0.444360 18.910168 -11.742392 2.595091 -2.162787 0.620735 -4.315684 5.993431 -6.623957 21.723040 -0.538349 -4.866360 2.665933 0.189330 0.184770 0.329360 -5.396143 2.793604 -8.155355 25.807502 6.916772 28.894060 -0.931134 10.790741 17.068371 1.608295 -2.264491 -7.776100 -4.832921 -2.356508 45.336421 -8.609380 -2.857210 -7.688610 -6.048505 3.715192 -0.322586 -15.721885 1.275634 -3.210629 -8.601288 -75.731497 4.926924 -3.443311 3.919898 0.334160 0.130760 0.093970 0.226410 1.792510 3.630658 6.058971 31.533115 21.026426 4.066270 -142.079913 44.369730 -117.001738 2.137745 -1.944397 -0.058130 0.125580 -0.179130 -0.049130 
1.124230 17.317210 -1.845550 8.936662 -20.512768 -4.504780 -14.566065 10.461407 5.338960 -16.821967 -9.345524 -42.500056 -2.599090 1.876799 0.967431 -0.857558 1.158667 4.238976 0.502670 0.245500 0.425710 18.984047 -11.843773 2.579078 -1.913590 0.262907 -4.117743 4.688354 -6.199484 20.659653 -0.517475 -4.749087 2.682110 0.179320 0.187390 0.351460 -5.587794 3.142564 -8.159106 26.796403 6.794498 28.603919 -2.434006 10.812431 16.883047 1.238510 -2.623717 -7.568960 -5.586908 -2.541802 45.136530 -7.202110 -3.950220 -7.864890 -5.575626 3.877013 -0.838045 -14.108413 0.194519 -2.881596 3.233469 -78.035546 -3.222989 -3.475393 3.875021 0.353660 0.121570 0.071430 0.206910 2.011963 3.494302 6.344746 32.846398 20.413268 4.027579 -142.547585 46.403462 -120.390163 2.129533 -1.966971 -0.059080 0.096510 -0.139660 -0.061350 
1.188330 17.193250 -1.820320 8.718270 -19.695839 -4.162261 -14.461246 10.367516 5.243574 -16.106280 -8.981290 -42.190727 -3.269940 1.917109 1.023291 -0.897896 1.235831 4.213187 0.479160 0.192020 0.434080 19.084424 -11.988450 2.621637 -1.792521 0.311380 -3.996585 4.505900 -6.191940 20.534925 -0.524086 -4.748109 2.665098 0.163640 0.186370 0.342600 -5.888049 3.601540 -8.097531 29.572218 5.923521 28.302120 -5.225872 10.551173 16.548124 1.166845 -3.521678 -7.391553 -7.435684 -2.066882 45.277159 -6.985020 -4.232900 -8.881780 -6.199108 3.681957 -1.236693 -12.528596 0.712782 -3.227489 23.075993 -81.609775 -18.695121 -3.497899 3.586480 0.398130 0.102620 0.065960 0.175150 2.680423 3.655378 6.553809 34.200670 19.460885 3.436594 -143.818182 50.245984 -126.873982 2.132537 -1.950033 -0.093080 0.118150 -0.102310 -0.088180 
1.229110 17.072350 -1.806840 7.877348 -19.487651 -2.935353 -14.416267 10.446269 5.167877 -14.234538 -8.554399 -43.520909 -3.298795 2.274587 5.107567 -0.923945 1.435701 4.154559 0.390080 0.063660 0.384990 19.116649 -11.990319 2.680647 -0.753897 0.694246 -5.054016 4.425276 -6.189406 21.582427 -0.488024 -4.686612 2.697165 0.104860 0.238800 0.310730 -5.982406 3.573310 -8.040634 31.173922 5.319945 27.832341 -6.536733 10.581131 15.722626 0.700801 -5.007610 -7.773022 -10.796804 -1.461499 45.188720 -6.479230 -5.170450 -9.136800 -6.377601 2.889086 -1.173317 -14.753026 3.660576 -6.031825 63.452223 -84.580501 -50.989630 -3.267262 1.870936 0.452180 0.097390 0.033430 0.148810 3.530953 5.138543 7.179239 35.046459 17.767010 1.873863 -146.852781 54.340069 -136.184202 2.123290 -1.906164 -0.163430 0.183570 -0.031460 -0.103430 
1.266960 16.980860 -1.798030 5.539686 -19.500128 -0.780365 -14.363468 10.464513 5.143249 -10.708874 -8.003528 -46.865011 -2.661388 3.043442 13.323808 -0.726138 1.987812 3.939955 0.315130 -0.003830 0.276840 19.159807 -11.975706 2.822924 1.555254 1.658173 -7.424800 4.429468 -6.219828 24.293017 -0.440309 -4.739341 2.712603 0.034320 0.297320 0.305480 -6.092583 3.747635 -8.027908 34.422060 4.560549 27.291089 -8.719523 11.089604 13.728497 0.437281 -6.101517 -8.447116 -12.637812 -0.935830 44.458890 -5.714620 -5.601290 -4.964390 -7.358909 4.385442 0.775480 -17.091867 2.884272 -1.610958 96.350591 -74.848679 -71.289575 -3.238315 -0.139340 0.364010 0.135780 -0.026660 0.175010 4.857895 4.867688 6.918697 37.305810 15.820486 0.290721 -152.791499 61.800696 -150.854374 2.112164 -2.035955 -0.132220 0.137060 -0.022600 -0.047450 
1.284770 16.932380 -1.772380 4.303025 -19.564092 0.684383 -14.397985 10.493469 5.217949 -7.668820 -7.916799 -49.326734 -1.277310 3.869129 22.400680 -0.526468 3.118152 3.511991 0.211860 -0.126240 0.207870 19.139929 -11.781703 2.900233 2.404832 3.266237 -10.017620 5.314080 -6.779098 28.357711 -0.439035 -5.024974 2.616820 -0.048520 0.342860 0.301330 -6.004034 3.561299 -8.090714 35.226587 3.907866 27.779915 -10.779938 11.424048 10.777605 0.419383 -6.455914 -8.612430 -13.293359 -0.383429 43.685758 -5.877430 -4.605800 -1.939630 -9.492996 5.232755 2.018123 -18.604073 2.515029 0.904353 110.677494 -66.500733 -85.745461 -3.912398 1.613793 0.335620 0.169310 -0.072770 0.154600 6.875048 4.548066 6.312249 41.334233 13.332046 -3.761182 -164.446202 74.267046 -170.902979 2.031355 -2.018309 -0.147620 0.111640 0.023190 -0.041610 
1.291470 16.944820 -1.736360 3.768817 -19.755754 1.238868 -14.434832 10.657871 5.146296 -4.720868 -7.441432 -49.029098 -1.258285 5.001054 29.592199 -0.288151 4.331381 3.033377 0.175030 -0.147900 0.176860 19.096688 -11.589320 2.981057 1.717019 5.147659 -12.510412 6.462863 -7.653790 32.834548 -0.528392 -5.457746 2.472833 -0.109040 0.309610 0.294890 -5.882723 3.207090 -8.152945 35.010312 2.721192 29.063346 -12.704473 11.023882 8.376469 0.435624 -6.955538 -9.121387 -14.539469 0.683496 44.218790 -4.981270 -3.655080 -1.886570 -11.119724 5.529311 2.743374 -22.809074 4.435761 -0.043127 124.493796 -60.684645 -101.606865 -3.921847 2.794836 0.352250 0.136450 -0.039320 0.137940 8.419578 4.664598 6.218636 45.946337 13.245154 -0.922369 -120.040024 87.791463 -132.658837 2.717473 -1.202608 -0.113380 0.082690 0.029740 -0.032810 
